HIERARCHY
ROOT Hips
{
	OFFSET 0.0000 0.0000 0.0000
	CHANNELS 6 Xposition Yposition Zposition Zrotation Xrotation Yrotation
	JOINT Ab
	{
		OFFSET -0.0000 8.1305 -0.0000
		CHANNELS 3 Zrotation Xrotation Yrotation
		JOINT Chest
		{
			OFFSET -0.0000 26.2902 -0.0000
			CHANNELS 3 Zrotation Xrotation Yrotation
			JOINT Neck
			{
				OFFSET -0.0000 26.2902 0.0000
				CHANNELS 3 Zrotation Xrotation Yrotation
				JOINT Head
				{
					OFFSET -0.0000 10.8167 0.0000
					CHANNELS 3 Zrotation Xrotation Yrotation
					End Site
					{
						OFFSET -0.0000 16.7167 0.0000
					}
				}
			}
			JOINT LeftCollar
			{
				OFFSET -0.0000 26.2902 0.0000
				CHANNELS 3 Zrotation Xrotation Yrotation
				JOINT LeftShoulder
				{
					OFFSET 19.6667 -0.0000 0.0000
					CHANNELS 3 Zrotation Xrotation Yrotation
					JOINT LeftElbow
					{
						OFFSET 27.2190 0.0000 0.0000
						CHANNELS 3 Zrotation Xrotation Yrotation
						JOINT LeftWrist
						{
							OFFSET 30.7431 0.0000 0.0000
							CHANNELS 3 Zrotation Xrotation Yrotation
							End Site
							{
								OFFSET 0.0000 -14.7500 0.0000
							}
						}
					}
				}
			}
			JOINT RightCollar
			{
				OFFSET -0.0000 26.2902 0.0000
				CHANNELS 3 Zrotation Xrotation Yrotation
				JOINT RightShoulder
				{
					OFFSET -19.6667 0.0000 0.0000
					CHANNELS 3 Zrotation Xrotation Yrotation
					JOINT RightElbow
					{
						OFFSET -27.2190 0.0000 0.0000
						CHANNELS 3 Zrotation Xrotation Yrotation
						JOINT RightWrist
						{
							OFFSET -30.7431 0.0000 0.0000
							CHANNELS 3 Zrotation Xrotation Yrotation
							End Site
							{
								OFFSET -0.0000 -14.7500 0.0000
							}
						}
					}
				}
			}
		}
	}
	JOINT LeftHip
	{
		OFFSET 11.8000 0.0000 0.0000
		CHANNELS 3 Zrotation Xrotation Yrotation
		JOINT LeftKnee
		{
			OFFSET -0.0000 -39.7832 0.0000
			CHANNELS 3 Zrotation Xrotation Yrotation
			JOINT LeftAnkle
			{
				OFFSET -0.0000 -41.7317 0.0000
				CHANNELS 3 Zrotation Xrotation Yrotation
				End Site
				{
					OFFSET -0.0000 -4.9167 16.7167
				}
			}
		}
	}
	JOINT RightHip
	{
		OFFSET -11.8000 0.0000 0.0000
		CHANNELS 3 Zrotation Xrotation Yrotation
		JOINT RightKnee
		{
			OFFSET -0.0000 -39.7832 0.0000
			CHANNELS 3 Zrotation Xrotation Yrotation
			JOINT RightAnkle
			{
				OFFSET -0.0000 -41.7317 0.0000
				CHANNELS 3 Zrotation Xrotation Yrotation
				End Site
				{
					OFFSET -0.0000 -4.9167 16.7167
				}
			}
		}
	}
}
MOTION
Frames: 19
Frame Time: 0.010000
-9.1813 91.1469 98.2766 358.9404 353.4396 175.7870 356.5186 351.1642 359.4209 2.5385 17.1517 359.3054 356.3877 0.6546 3.9944 353.6733 13.1175 4.6925 337.8047 357.5227 12.6985 339.5533 53.3509 320.4712 14.8580 354.0786 316.7658 91.3459 356.7013 352.8916 27.4640 356.5072 345.7466 39.8368 49.8601 11.4218 335.6769 352.7150 33.0873 270.0006 355.5454 2.5822 354.9289 353.3531 4.6824 355.9569 16.1459 0.0627 0.3384 347.5786 17.9771 352.9875 337.8175 359.5345 17.8322 46.2091 5.7312 355.9205 336.0535 320.2269 
-9.2036 91.1171 97.7720 358.9963 353.5869 175.8799 356.6359 351.3035 359.3394 2.4976 17.2018 359.2096 356.5361 0.5438 3.9891 353.5843 13.1803 4.7066 337.7416 357.4604 13.0105 340.9827 53.5639 318.9005 15.1163 353.9457 317.0021 90.9081 356.5125 353.0429 27.4737 356.4831 345.7056 39.8209 49.8227 11.4342 335.6265 352.6507 33.1481 270.0601 355.4950 2.5598 354.9259 354.0083 4.5646 355.9441 15.8385 0.0770 359.3248 347.2768 18.1661 352.9718 337.4275 359.3522 17.4077 44.9169 6.0269 355.7572 335.9606 320.1298 
-9.2023 91.1003 97.3042 359.0178 353.5950 175.8758 356.6381 351.3275 359.3102 2.5834 17.2155 359.1823 356.4870 0.5058 4.0099 353.6129 13.1560 4.7221 337.7025 357.4255 13.0440 341.1034 53.5135 318.7374 15.2575 353.8836 316.7909 90.9175 356.5105 353.2031 27.4707 356.5023 345.7396 39.7465 49.8092 11.4517 335.6540 352.6413 33.1654 270.0859 355.4812 2.6969 354.9413 354.4974 4.5839 355.9165 15.5499 359.9950 0.1959 347.3013 18.2356 353.0179 336.8397 359.2309 16.8865 43.6189 6.4350 355.9356 335.8834 320.0245 
-9.2105 91.0781 96.8305 358.9972 353.5545 175.8363 356.6689 351.2831 359.2986 2.5678 17.2470 359.1674 356.4628 0.4076 3.9873 353.6635 13.2318 4.6927 337.7265 357.4141 13.0706 341.1902 53.4709 318.6096 15.4010 353.8136 316.5624 91.0283 356.5091 353.3760 27.5031 356.5173 345.7831 39.7274 49.6911 11.4115 335.6774 352.6415 33.2282 270.0543 355.5268 2.6628 354.9120 354.9529 4.6380 355.8996 15.2354 359.9855 0.4073 347.2685 18.3144 353.0205 336.2363 359.1508 16.4099 42.2699 6.6901 355.8865 335.9671 320.0424 
-9.2083 91.0503 96.3494 358.9881 353.5426 175.8231 356.7011 351.3207 359.2809 2.5463 17.1080 359.1457 356.5452 0.7311 3.9749 353.6232 12.9653 4.6664 337.6567 357.4057 13.0217 341.2852 53.4717 318.6574 15.4509 353.7596 316.3251 91.3445 356.6262 353.6696 27.5947 356.5167 345.8425 39.8152 49.7264 11.2365 335.6237 352.6408 33.1321 270.1602 355.3981 2.6840 354.8994 355.4372 4.7040 355.8810 14.9273 359.9602 0.5319 347.2489 18.2057 353.0308 335.7225 359.1043 16.0058 40.8354 6.9168 355.7568 336.1325 320.1389 
-9.2004 91.0172 95.8670 358.9755 353.5423 175.8343 356.6728 351.2975 359.2785 2.6347 17.2356 359.1329 356.5695 0.4851 3.9522 353.6236 13.1001 4.6658 337.6664 357.3948 13.0735 341.5376 53.4349 318.3005 15.5744 353.6788 316.1745 91.4998 356.6260 353.9056 27.5438 356.5012 345.7536 39.7405 49.7352 11.4625 335.5281 352.6326 33.0304 270.2196 355.4154 2.5064 354.8881 355.9259 4.7695 355.8514 14.6409 0.0035 0.7650 347.2134 18.0356 353.0484 335.2308 359.0396 15.6242 39.3584 6.8874 355.9890 336.1893 320.4901 
-9.1919 90.9775 95.3792 358.9559 353.5450 175.8510 356.6526 351.3186 359.2748 2.7011 17.2113 359.1178 356.6195 0.5514 3.9274 353.5800 13.0554 4.6369 337.6408 357.3983 13.0322 341.6156 53.5003 318.2121 15.6983 353.5994 316.0947 91.4630 356.5432 353.9202 27.5633 356.4970 345.7579 39.8730 49.6921 11.3372 335.5104 352.6380 32.9871 270.1318 355.5036 2.4808 354.8656 356.4186 4.8363 355.8254 14.3595 0.0231 1.3344 347.2243 17.9313 353.0757 334.7672 358.7986 15.0076 38.0340 7.5630 356.0932 336.3067 320.4661 
-9.1761 90.9320 94.8881 358.9455 353.5622 175.9054 356.6707 351.3642 359.2387 2.7265 17.1623 359.0739 356.6789 0.7291 3.8937 353.5279 12.8802 4.5967 337.6129 357.4191 12.9908 341.7027 53.5182 318.1571 15.7524 353.5833 315.9863 91.5039 356.5568 353.9929 27.6065 356.5133 345.7918 40.0306 49.6228 11.1657 335.4874 352.6458 32.9306 270.1367 355.5375 2.5229 354.8570 356.9203 4.8522 355.7968 14.0836 359.9997 1.5050 347.1520 17.8885 353.0681 334.4246 358.6438 14.6396 36.4147 7.8677 356.1156 336.5436 320.2695 
-9.1726 90.8842 94.3958 358.8914 353.5273 175.9341 356.6589 351.3176 359.2379 2.7669 17.2097 359.0699 356.6582 0.7274 3.9070 353.5468 12.8725 4.6070 337.5745 357.4233 12.9776 341.7533 53.4923 318.0907 15.8143 353.5524 315.8970 91.5480 356.5284 354.0813 27.6121 356.5011 345.8020 40.0802 49.5810 11.1572 335.4191 352.6527 32.8270 270.1543 355.5212 2.5122 354.7927 357.3518 4.8312 355.7583 13.8597 0.1605 0.6889 346.9703 17.7015 353.0376 334.0362 358.5784 14.3338 34.7433 8.0844 356.2215 336.6732 320.1627 
-9.1661 90.8306 93.8971 358.8347 353.4912 175.9719 356.6638 351.2351 359.2255 2.7924 17.3766 359.0502 356.6011 0.5149 3.9064 353.6514 12.9505 4.6036 337.6164 357.4157 13.0320 341.8659 53.4722 317.8277 15.8841 353.5304 315.8574 91.5554 356.4857 354.1331 27.5519 356.4826 345.7063 40.0557 49.6093 11.3775 335.3591 352.6603 32.7001 270.1904 355.5601 2.5021 354.7268 357.7873 4.8273 355.7333 13.6325 0.2486 0.0337 346.8024 17.5519 353.0445 333.7053 358.8109 14.1271 33.0325 8.2904 356.6315 336.6619 320.1186 
-9.1494 90.7682 93.4172 358.7902 353.4201 176.0563 356.6691 351.1666 359.2019 2.8320 17.4946 359.0071 356.5955 0.2597 3.8782 353.6990 13.0810 4.5847 337.6914 357.4048 13.0805 341.9682 53.5358 317.5572 15.9511 353.4955 315.8559 91.6883 356.4797 354.2357 27.5104 356.4704 345.6161 40.0426 49.5907 11.5477 335.3455 352.6878 32.6178 270.1787 355.5899 2.4282 354.6841 358.1506 4.8509 355.7443 13.4428 0.1052 0.0392 346.6959 17.5738 353.0752 333.3721 359.0274 13.8905 31.3238 8.4469 356.9678 336.7320 320.0966 
-9.1288 90.7018 92.9377 358.7373 353.3239 176.1552 356.6908 351.1528 359.1643 2.8097 17.3895 358.9780 356.6497 0.3898 3.8412 353.6892 12.9617 4.5388 337.6924 357.4000 13.0542 341.9213 53.6441 317.6369 15.9378 353.4840 315.8399 91.7363 356.4876 354.2188 27.5848 356.4509 345.6187 40.1362 49.5926 11.4249 335.3765 352.7078 32.5432 270.2139 355.6547 2.4524 354.6370 358.4597 4.8774 355.7587 13.2964 0.0475 0.6971 346.6757 17.5329 353.1025 333.0271 359.0026 13.4170 29.6210 8.7108 357.1913 337.0079 320.2052 
-9.1063 90.6355 92.4237 358.6667 353.2912 176.2555 356.7020 351.1636 359.1309 2.7777 17.2927 358.9556 356.6965 0.5716 3.8170 353.5841 12.8305 4.5139 337.6607 357.4186 13.0245 341.8305 53.7298 317.7907 15.8847 353.5067 315.8472 91.7040 356.4910 354.0911 27.6712 356.4431 345.6741 40.2927 49.5886 11.2019 335.3838 352.7113 32.4474 270.2624 355.6514 2.4866 354.5691 358.8553 4.9090 355.7832 13.1451 359.9854 1.6567 346.6878 17.4961 353.1221 332.8382 359.0773 12.9830 27.7591 8.7424 357.6306 337.3266 320.4690 
-9.0815 90.5636 91.9014 358.5843 353.2592 176.3633 356.6719 351.1298 359.1134 2.8239 17.3343 358.9404 356.6849 0.4655 3.7744 353.4329 12.9105 4.4959 337.6493 357.4249 13.0243 341.7827 53.8023 317.7889 15.8796 353.5073 315.8963 91.6975 356.5119 353.9847 27.6975 356.4307 345.6777 40.3460 49.5044 11.1252 335.4069 352.7373 32.4239 270.2544 355.6655 2.5420 354.4955 359.2526 4.9084 355.7946 12.9902 0.0878 1.4644 346.5427 17.2857 353.1450 332.6970 359.2771 12.5802 25.9107 8.9732 358.2241 337.4587 320.4933 
-9.0535 90.4881 91.3717 358.5021 353.2419 176.5086 356.6503 351.1192 359.0851 2.8364 17.3625 358.9102 356.7444 0.3807 3.7037 353.4133 12.9730 4.4329 337.6551 357.4191 13.0391 341.7528 53.8780 317.7557 15.8283 353.5662 315.9937 91.7334 356.5137 353.8897 27.7498 356.4324 345.6777 40.4658 49.3742 10.9453 335.4790 352.7583 32.5107 270.2302 355.8091 2.4428 354.4212 359.6477 4.8803 355.8145 12.8860 0.1714 1.1958 346.3944 17.1012 353.1604 332.6203 359.4476 12.2351 24.2464 8.9559 358.2760 337.5069 320.6868 
-9.0208 90.4127 90.8013 358.4207 353.3165 176.6441 356.6201 351.1407 359.0791 2.8899 17.4526 358.8973 356.6702 0.2137 3.6465 353.5124 13.1348 4.3781 337.6435 357.4345 12.9979 341.3203 53.8238 318.1368 15.6323 353.6812 315.9259 91.7533 356.5949 353.6459 27.7376 356.4474 345.5922 40.4539 49.4634 11.0411 335.4531 352.7362 32.3733 270.1493 355.8543 2.3365 354.3380 0.1871 4.8470 355.8356 12.7380 0.0231 1.1895 346.2569 17.1841 353.2009 332.6935 359.6864 11.9147 22.5559 8.6754 358.4742 337.4844 321.0300 
-8.9771 90.3261 90.2689 358.3241 353.2619 176.8092 356.5976 351.0994 359.0525 2.9104 17.4996 358.8673 356.6724 0.0524 3.6002 353.5649 13.2044 4.3344 337.6390 357.4237 12.9318 341.2264 53.9042 318.2650 15.5589 353.7009 316.0369 91.6446 356.5147 353.4923 27.7538 356.4137 345.5092 40.4995 49.4724 11.0732 335.3822 352.7502 32.2838 270.1992 355.7825 2.2905 354.2590 0.5029 4.8053 355.8746 12.7203 359.8328 1.4524 346.2010 17.1907 353.2395 332.6094 0.0031 11.5123 20.9745 8.5272 358.2385 337.8186 321.1723 
-8.9269 90.2372 89.7201 358.2495 353.2436 176.9714 356.6156 351.0494 359.0244 2.9143 17.6703 358.8302 356.6059 359.6154 3.5588 353.6933 13.4566 4.3060 337.7815 357.4366 13.0136 341.1252 54.0229 318.1416 15.5229 353.7328 316.1628 91.7112 356.5291 353.5380 27.6806 356.4145 345.4066 40.5527 49.4721 11.2288 335.3764 352.7909 32.2167 270.1404 355.8292 2.2161 354.2012 0.8463 4.7516 355.9150 12.7446 359.5251 1.9392 346.2909 17.2422 353.3273 332.5942 0.3327 11.1719 19.6185 8.1724 358.0557 337.9753 321.5272 
-8.8741 90.1470 89.1631 358.1590 353.2308 177.1444 356.6264 351.0239 358.9906 2.8870 17.7434 358.8013 356.6188 359.4891 3.5089 353.7406 13.4413 4.2515 337.8896 357.4584 12.9981 340.7790 54.2074 318.3713 15.5333 353.7452 316.3529 91.2945 356.3631 353.2157 27.7293 356.3761 345.3868 40.6075 49.5160 11.1923 335.3803 352.7871 32.1480 269.8283 355.8302 2.2894 354.1303 1.1928 4.6942 355.9560 12.7750 359.2837 2.5343 346.1108 17.5002 353.4482 332.5304 0.7748 10.7427 18.3571 7.8758 358.1526 338.0961 321.7039 
